<?xml version="1.0" standalone="no"?>
<!DOCTYPE svg PUBLIC "-//W3C//DTD SVG 20010904//EN"
 "http://www.w3.org/TR/2001/REC-SVG-20010904/DTD/svg10.dtd">
<svg version="1.0" xmlns="http://www.w3.org/2000/svg"
 width="700.000000pt" height="700.000000pt" viewBox="0 0 700.000000 700.000000"
 preserveAspectRatio="xMidYMid meet">
<metadata>
Created by potrace 1.11, written by Peter Selinger 2001-2013
</metadata>
<g transform="translate(0.000000,700.000000) scale(0.100000,-0.100000)"
fill="#000000" stroke="none">
<path d="M3278 6996 c-1 -2 -39 -6 -83 -10 -119 -9 -267 -31 -436 -66 -142
-28 -373 -98 -509 -152 -41 -17 -88 -35 -105 -41 -56 -21 -420 -208 -423 -218
-2 -5 -8 -9 -13 -9 -14 0 -171 -103 -279 -183 -163 -121 -249 -196 -415 -362
-505 -505 -847 -1167 -965 -1867 -22 -133 -24 -151 -37 -288 -15 -160 -8 -605
11 -707 2 -10 7 -43 10 -74 4 -31 9 -67 11 -80 3 -13 7 -38 9 -54 21 -155 124
-505 209 -711 128 -313 352 -681 557 -918 100 -116 134 -153 232 -249 381
-373 812 -640 1324 -820 164 -58 481 -134 634 -153 30 -3 66 -8 80 -10 183
-27 649 -25 840 2 508 74 927 217 1345 460 290 169 637 459 866 724 332 384
578 833 719 1316 43 148 95 389 106 494 3 36 8 68 10 71 18 31 26 546 11 714
-7 82 -23 207 -31 252 -2 10 -11 59 -20 108 -104 564 -399 1171 -787 1617 -81
92 -261 274 -354 356 -93 83 -308 242 -432 321 -390 247 -876 432 -1308 497
-27 4 -52 8 -55 9 -3 1 -41 5 -85 10 -44 4 -89 10 -100 12 -25 4 -532 13 -537
9z m577 -435 c112 -16 137 -20 161 -25 12 -2 37 -7 55 -10 19 -3 45 -8 59 -11
14 -4 39 -9 55 -11 102 -18 371 -107 530 -175 169 -73 427 -215 520 -286 6 -5
23 -17 40 -27 16 -11 34 -23 40 -28 5 -4 48 -38 95 -75 118 -93 149 -122 275
-249 129 -130 144 -147 242 -272 278 -355 487 -796 578 -1217 5 -22 10 -42 10
-45 7 -26 24 -125 31 -175 3 -22 7 -51 10 -65 25 -155 25 -680 -1 -780 -2 -8
-6 -37 -10 -65 -16 -135 -75 -374 -134 -547 -188 -544 -529 -1029 -981 -1395
-91 -73 -325 -236 -370 -257 -8 -3 -42 -22 -75 -41 -184 -108 -483 -227 -730
-291 -65 -17 -72 -19 -155 -34 -30 -6 -66 -12 -80 -15 -55 -12 -128 -21 -240
-33 -94 -9 -473 -9 -560 1 -274 29 -476 72 -692 146 -302 104 -503 205 -771
384 -264 176 -564 472 -765 753 -232 327 -387 667 -486 1069 -35 140 -40 168
-52 267 -4 29 -8 56 -10 59 -18 31 -26 518 -11 684 7 73 39 276 61 382 35 171
140 470 229 653 339 697 897 1221 1622 1526 142 59 494 160 620 178 42 6 90
13 140 21 17 3 68 8 115 11 47 4 87 8 89 10 9 8 473 -5 546 -15z"/>
<path d="M1831 4319 c-70 -9 -127 -50 -159 -111 -43 -83 -31 -168 32 -237 40
-43 86 -63 161 -67 324 -19 540 -85 775 -239 295 -192 518 -505 605 -848 28
-114 33 -145 41 -277 7 -127 17 -161 57 -207 104 -118 282 -86 348 62 20 44
21 60 15 164 -3 64 -8 127 -10 141 -2 14 -7 43 -10 65 -9 61 -16 96 -28 140
-5 22 -11 47 -13 56 -6 30 -64 197 -86 245 -51 117 -149 288 -203 359 -52 67
-59 76 -110 134 -120 138 -311 294 -457 375 -265 147 -517 224 -794 242 -49 3
-94 7 -100 8 -5 1 -34 -1 -64 -5z"/>
<path d="M5058 4305 c-2 -1 -41 -5 -88 -9 -47 -3 -96 -8 -110 -11 -14 -2 -36
-7 -50 -10 -14 -2 -41 -7 -60 -10 -125 -20 -414 -129 -524 -198 -11 -7 -45
-27 -75 -46 -102 -62 -200 -140 -301 -238 -55 -53 -100 -99 -100 -103 0 -4 23
-45 51 -91 43 -72 79 -143 142 -283 l13 -29 54 69 c263 339 664 541 1100 555
94 3 143 23 190 76 36 41 45 62 54 128 5 35 -14 99 -40 132 -38 50 -78 66
-171 68 -46 1 -84 1 -85 0z"/>
</g>
</svg>
